<?xml version="1.0" standalone="no"?>
<!DOCTYPE svg PUBLIC "-//W3C//DTD SVG 20010904//EN"
 "http://www.w3.org/TR/2001/REC-SVG-20010904/DTD/svg10.dtd">
<svg version="1.0" xmlns="http://www.w3.org/2000/svg"
 width="64.000000pt" height="64.000000pt" viewBox="0 0 64.000000 64.000000"
 preserveAspectRatio="xMidYMid meet">

<g transform="translate(0.000000,64.000000) scale(0.100000,-0.100000)"
fill="#fff" stroke="none">
<path d="M245 631 c-92 -24 -173 -90 -215 -176 -19 -41 -24 -66 -24 -135 -1
-78 2 -90 33 -148 58 -108 148 -164 266 -166 68 -1 70 0 70 24 0 20 -6 26 -28
28 -23 3 -33 12 -47 45 -35 81 -35 85 1 89 67 6 60 68 -7 68 l-34 0 0 60 0 60
60 0 60 0 0 -34 c0 -70 62 -73 68 -2 l3 36 60 0 c57 0 59 -1 61 -27 0 -16 0
-36 -1 -47 -4 -46 54 -64 65 -20 16 64 -21 181 -80 251 -43 51 -136 94 -213
98 -38 2 -81 1 -98 -4z m104 -116 c12 -31 21 -58 21 -60 0 -3 -22 -5 -50 -5
-27 0 -50 2 -50 5 0 16 43 115 50 115 5 0 18 -25 29 -55z m-128 -10 l-16 -55
-53 0 -52 0 17 27 c16 24 97 83 114 83 3 0 -1 -25 -10 -55z m235 30 c23 -14
52 -39 64 -55 l21 -30 -53 0 -53 0 -16 55 c-9 30 -14 55 -11 55 3 0 24 -11 48
-25z m-266 -215 l0 -60 -59 0 c-57 0 -59 1 -64 30 -4 17 -4 44 0 60 5 29 7 30
64 30 l59 0 0 -60z m31 -185 c9 -30 14 -55 11 -55 -17 0 -94 55 -112 80 l-21
30 53 0 53 0 16 -55z"/>
<path d="M410 216 c0 -28 79 -186 93 -186 8 0 20 14 27 31 8 18 27 37 47 47
18 9 33 22 33 29 0 14 -159 93 -186 93 -8 0 -14 -6 -14 -14z"/>
</g>
</svg>
