<svg xmlns="http://www.w3.org/2000/svg" width="85.333" height="85.333" version="1.0" viewBox="0 0 64 64"><g fill="#fff"><path d="M24.5.9C15.3 3.3 7.2 9.9 3 18.5 1.1 22.6.6 25.1.6 32c-.1 7.8.2 9 3.3 14.8 5.8 10.8 14.8 16.4 26.6 16.6 6.8.1 7 0 7-2.4 0-2-.6-2.6-2.8-2.8-2.3-.3-3.3-1.2-4.7-4.5-3.5-8.1-3.5-8.5.1-8.9 6.7-.6 6-6.8-.7-6.8H26V26h12v3.4c0 7 6.2 7.3 6.8.2l.3-3.6h6c5.7 0 5.9.1 6.1 2.7 0 1.6 0 3.6-.1 4.7-.4 4.6 5.4 6.4 6.5 2 1.6-6.4-2.1-18.1-8-25.1C51.3 5.2 42 .9 34.3.5c-3.8-.2-8.1-.1-9.8.4zm10.4 11.6c1.2 3.1 2.1 5.8 2.1 6 0 .3-2.2.5-5 .5-2.7 0-5-.2-5-.5C27 16.9 31.3 7 32 7c.5 0 1.8 2.5 2.9 5.5zm-12.8 1L20.5 19H10l1.7-2.7C13.3 13.9 21.4 8 23.1 8c.3 0-.1 2.5-1 5.5zm23.5-3c2.3 1.4 5.2 3.9 6.4 5.5l2.1 3H43.5l-1.6-5.5c-.9-3-1.4-5.5-1.1-5.5.3 0 2.4 1.1 4.8 2.5zM19 32v6h-5.9c-5.7 0-5.9-.1-6.4-3-.4-1.7-.4-4.4 0-6 .5-2.9.7-3 6.4-3H19v6zm3.1 18.5c.9 3 1.4 5.5 1.1 5.5-1.7 0-9.4-5.5-11.2-8l-2.1-3h10.6l1.6 5.5z"/><path d="M41 42.4c0 2.8 7.9 18.6 9.3 18.6.8 0 2-1.4 2.7-3.1.8-1.8 2.7-3.7 4.7-4.7 1.8-.9 3.3-2.2 3.3-2.9 0-1.4-15.9-9.3-18.6-9.3-.8 0-1.4.6-1.4 1.4z"/></g></svg>