<?xml version="1.0" encoding="UTF-8"?>
<svg version="1.1" xmlns="http://www.w3.org/2000/svg" width="64" height="64">
<!-- <linearGradient id="linear" x1="0%" y1="0%" x2="100%" y2="0%">
<stop offset="0%" stop-color="#1c7fee"/>
<stop offset="50%" stop-color="#5f15f2"/>
<stop offset="100%" stop-color="#ba0cf8"/>
</linearGradient> -->
<path d="M0 0 C3 1 3 1 4 3 C4.23029956 5.37123246 4.41119942 7.74741943 4.5625 10.125 C4.68818359 12.04699219 4.68818359 12.04699219 4.81640625 14.0078125 C4.87699219 14.99523438 4.93757813 15.98265625 5 17 C5.66 16.34 6.32 15.68 7 15 C9 15.125 9 15.125 11 16 C12.25 18.0625 12.25 18.0625 13 20 C13.33 19.34 13.66 18.68 14 18 C15.66611905 17.957279 17.33382885 17.95936168 19 18 C20 19 20 19 20.09765625 20.84765625 C20.06510417 22.8984375 20.03255208 24.94921875 20 27 C20.66 27 21.32 27 22 27 C21.979375 26.195625 21.95875 25.39125 21.9375 24.5625 C22 22 22 22 23 21 C24.66617115 20.95936168 26.33388095 20.957279 28 21 C29.71916758 24.43833516 29.22698358 28.27342235 29.25 32.0625 C29.270625 32.88427734 29.29125 33.70605469 29.3125 34.55273438 C29.35782727 41.75410486 28.29877377 48.21727385 23.625 53.875 C18.9631418 57.64888521 15.78416205 59.44158887 9.6875 59.5 C8.61886719 59.5309375 7.55023438 59.561875 6.44921875 59.59375 C0.68551724 58.60158394 -3.2409814 56.31664011 -6.80444336 51.62353516 C-8.57769916 48.81813088 -10.21250136 45.97002441 -11.8125 43.0625 C-12.37130859 42.08603516 -12.93011719 41.10957031 -13.50585938 40.10351562 C-16.1425201 35.46814665 -18.68355203 30.80358158 -21 26 C-20 25 -20 25 -17.1875 24.625 C-14 25 -14 25 -11.8125 27.25 C-11.214375 28.1575 -10.61625 29.065 -10 30 C-9.4225 30.763125 -8.845 31.52625 -8.25 32.3125 C-7.8375 32.869375 -7.425 33.42625 -7 34 C-5.515 33.505 -5.515 33.505 -4 33 C-3.98541748 32.0713916 -3.97083496 31.1427832 -3.95581055 30.18603516 C-3.89480828 26.74533504 -3.8206695 23.30544348 -3.73754883 19.86523438 C-3.70426537 18.37543428 -3.67624403 16.88550705 -3.65356445 15.39550781 C-3.62007929 13.25530748 -3.56777211 11.11627581 -3.51171875 8.9765625 C-3.48553467 7.68830566 -3.45935059 6.40004883 -3.43237305 5.07275391 C-3.28968994 4.05874512 -3.14700684 3.04473633 -3 2 C-2.01 1.34 -1.02 0.68 0 0 Z " fill="#d4d4d4" transform="translate(28,5)"/>
<path d="M0 0 C3.13584923 2.038302 3.81271512 3.37125791 4.875 6.9375 C5.01112911 10.27266309 4.65091887 12.11089197 3 15 C2.01 15.33 1.02 15.66 0 16 C-0.07347656 15.06027344 -0.07347656 15.06027344 -0.1484375 14.1015625 C-0.22320312 13.28429688 -0.29796875 12.46703125 -0.375 11.625 C-0.44460937 10.81289062 -0.51421875 10.00078125 -0.5859375 9.1640625 C-0.82892588 6.79665809 -0.82892588 6.79665809 -3 5 C-4.65 5.33 -6.3 5.66 -8 6 C-8.66 9.3 -9.32 12.6 -10 16 C-10.66 16 -11.32 16 -12 16 C-14.46480098 12.30279853 -14.7842673 9.28844034 -14 5 C-10.4345501 -0.52069662 -6.13874382 -1.22774876 0 0 Z " fill="#d4d4d4" transform="translate(33,0)"/>
</svg>
