<?xml version="1.0" standalone="no"?>
<!DOCTYPE svg PUBLIC "-//W3C//DTD SVG 20010904//EN"
 "http://www.w3.org/TR/2001/REC-SVG-20010904/DTD/svg10.dtd">
<svg version="1.0" xmlns="http://www.w3.org/2000/svg"
 width="401.000000pt" height="401.000000pt" viewBox="0 0 401.000000 401.000000"
 preserveAspectRatio="xMidYMid meet">
<metadata>
Created by potrace 1.14, written by Peter Selinger 2001-2017
</metadata>
<g transform="translate(0.000000,401.000000) scale(0.100000,-0.100000)"
fill="#000000" stroke="none">
<path d="M1295 3449 c-22 -4 -58 -10 -80 -13 -196 -31 -462 -148 -615 -271
-371 -298 -570 -686 -573 -1120 -2 -199 20 -367 65 -500 36 -105 141 -316 190
-380 137 -178 224 -264 362 -356 101 -68 172 -106 279 -148 65 -26 226 -74
290 -87 70 -14 2759 -25 2773 -12 4 5 -112 208 -211 370 -33 54 -16 53 -205
16 -271 -52 -448 -59 -641 -27 -183 31 -280 69 -619 242 -173 88 -329 168
-345 177 -97 54 -438 169 -584 197 -14 2 -27 6 -31 8 -4 2 -29 7 -56 11 -27 3
-52 8 -55 10 -3 1 -28 6 -55 9 -27 3 -58 8 -69 10 -62 12 -203 19 -377 20
-109 0 -198 3 -198 6 0 7 173 36 295 49 111 11 412 10 520 -2 77 -9 148 -22
355 -68 52 -11 194 -41 315 -66 121 -25 229 -48 240 -50 11 -2 52 -9 90 -14
39 -6 77 -12 85 -15 8 -2 44 -7 80 -10 36 -4 72 -8 81 -10 9 -2 56 -6 105 -10
49 -3 109 -8 134 -10 80 -8 464 -8 510 0 60 10 120 34 120 49 0 6 -22 43 -49
81 -53 78 -53 78 -181 59 -151 -22 -346 -2 -505 51 -49 17 -201 90 -300 145
-105 58 -333 170 -347 170 -8 0 -18 4 -24 9 -25 22 -349 109 -469 125 -109 15
-213 21 -345 20 l-145 0 85 17 c89 19 234 33 335 33 69 -1 249 -13 268 -19 6
-2 30 -6 52 -9 22 -3 78 -15 125 -26 47 -12 92 -23 100 -25 54 -11 331 -66
358 -70 44 -7 88 -14 152 -25 57 -9 136 -19 205 -26 35 -3 319 -4 368 -2 23 2
22 5 -19 74 -46 77 -51 81 -104 88 -67 9 -184 43 -238 70 -26 12 -117 59 -202
102 -222 114 -333 155 -519 193 -107 22 -157 28 -280 36 -85 6 -120 14 -65 16
16 1 43 3 59 5 78 10 276 5 345 -10 41 -8 89 -17 105 -20 17 -2 80 -14 140
-26 61 -11 133 -25 160 -30 28 -5 62 -12 78 -15 81 -15 150 -25 220 -30 91 -8
91 -16 8 123 -31 51 -60 101 -66 110 -19 33 -59 87 -69 94 -9 6 -102 29 -174
43 -13 2 -31 6 -40 9 -16 4 -102 15 -177 22 -16 1 -52 3 -79 3 -27 1 -47 3
-45 5 16 17 298 25 412 13 31 -4 57 -5 57 -2 0 10 -115 142 -174 200 -233 231
-517 369 -844 411 -68 8 -307 11 -347 3z m-768 -1845 c-3 -3 -12 -4 -19 -1 -8
3 -5 6 6 6 11 1 17 -2 13 -5z"/>
</g>
</svg>
