<?xml version="1.0" standalone="no"?>
<!DOCTYPE svg PUBLIC "-//W3C//DTD SVG 20010904//EN"
 "http://www.w3.org/TR/2001/REC-SVG-20010904/DTD/svg10.dtd">
<svg version="1.0" xmlns="http://www.w3.org/2000/svg"
 width="401.000000pt" height="401.000000pt" viewBox="0 0 401.000000 401.000000"
 preserveAspectRatio="xMidYMid meet">
<metadata>
Created by potrace 1.14, written by Peter Selinger 2001-2017
</metadata>
<g transform="translate(0.000000,401.000000) scale(0.100000,-0.100000)"
fill="#000000" stroke="none">
<path d="M1355 3443 c-488 -52 -889 -308 -1131 -723 -132 -225 -191 -445 -192
-716 0 -89 4 -183 9 -210 5 -27 14 -74 20 -104 34 -178 134 -402 249 -555 218
-291 534 -489 895 -561 84 -17 179 -18 1400 -19 721 0 1326 2 1347 5 l36 5
-120 206 -121 206 -86 -19 c-47 -11 -95 -21 -106 -24 -11 -2 -31 -6 -45 -9
-14 -3 -43 -7 -65 -10 -22 -2 -65 -8 -95 -12 -67 -9 -304 -10 -380 -1 -200 23
-359 86 -740 292 -328 178 -606 284 -905 345 -83 17 -178 34 -210 37 -33 3
-89 10 -125 14 -65 9 -458 6 -495 -3 -11 -2 -40 -7 -65 -11 -35 -5 -40 -4 -22
4 13 5 33 12 45 14 12 3 65 14 117 26 95 20 109 22 207 35 190 23 539 18 688
-11 11 -2 47 -9 80 -14 33 -6 125 -27 205 -46 80 -20 155 -38 168 -40 44 -8
68 -13 142 -28 96 -19 283 -53 335 -61 23 -3 50 -7 60 -9 11 -2 43 -7 70 -10
28 -4 61 -9 75 -11 14 -2 54 -6 90 -9 36 -4 92 -9 125 -13 81 -9 456 -10 525
-1 30 4 74 13 98 20 l42 13 -50 86 -50 86 -47 -8 c-75 -14 -150 -21 -247 -21
-202 -2 -318 31 -576 165 -312 161 -343 177 -423 207 -172 66 -381 122 -497
135 -30 3 -82 9 -115 13 -76 8 -279 9 -370 0 -69 -7 -64 5 8 17 18 3 39 8 47
10 21 6 67 14 120 21 25 3 56 7 70 10 32 5 318 6 345 0 11 -2 52 -7 90 -11 66
-7 78 -9 123 -19 334 -80 617 -134 790 -151 35 -4 73 -8 85 -11 12 -2 104 -7
205 -11 133 -4 182 -3 182 5 0 15 -79 145 -94 154 -6 4 -25 8 -43 8 -65 0
-247 55 -298 90 -35 24 -274 144 -345 173 -256 104 -520 147 -757 123 -35 -4
-63 -5 -63 -3 0 13 242 48 340 50 138 3 249 -11 455 -57 177 -40 357 -72 456
-81 35 -4 70 -8 78 -11 9 -3 11 1 7 12 -4 11 -166 290 -180 311 -2 3 -193 51
-226 57 -121 20 -327 27 -400 13 -24 -5 -30 -4 -19 3 55 32 322 52 497 37 l84
-8 -48 61 c-238 303 -571 494 -954 545 -52 7 -261 12 -305 8z"/>
</g>
</svg>
